<svg version="1.1" width="300" height="200" xmlns="http://www.w3.org/2000/svg">
<polyline points="0,5 8.660254037844386,0 17.32050807568877,5 17.32050807568877,15 8.660254037844386,20 0,15 0,5" fill="black"/>
<polyline points="8.660254037844386,22.32050807568877 17.32050807568877,17.32050807568877 25.980762113533157,22.32050807568877 25.980762113533157,32.32050807568877 17.32050807568877,37.32050807568877 8.660254037844386,32.32050807568877 8.660254037844386,22.32050807568877" fill="black"/>
<polyline points="0,39.64101615137754 8.660254037844386,34.64101615137754 17.32050807568877,39.64101615137754 17.32050807568877,49.64101615137754 8.660254037844386,54.64101615137754 0,49.64101615137754 0,39.64101615137754" fill="black"/>
<polyline points="8.660254037844386,56.96152422706631 17.32050807568877,51.96152422706631 25.980762113533157,56.96152422706631 25.980762113533157,66.96152422706632 17.32050807568877,71.96152422706632 8.660254037844386,66.96152422706632 8.660254037844386,56.96152422706631" fill="black"/>
<polyline points="0,74.28203230275508 8.660254037844386,69.28203230275508 17.32050807568877,74.28203230275508 17.32050807568877,84.28203230275508 8.660254037844386,89.28203230275508 0,84.28203230275508 0,74.28203230275508" fill="black"/>
<polyline points="8.660254037844386,91.60254037844385 17.32050807568877,86.60254037844385 25.980762113533157,91.60254037844385 25.980762113533157,101.60254037844385 17.32050807568877,106.60254037844385 8.660254037844386,101.60254037844385 8.660254037844386,91.60254037844385" fill="black"/>
<polyline points="0,108.92304845413263 8.660254037844386,103.92304845413263 17.32050807568877,108.92304845413263 17.32050807568877,118.92304845413263 8.660254037844386,123.92304845413263 0,118.92304845413263 0,108.92304845413263" fill="black"/>
<polyline points="8.660254037844386,126.2435565298214 17.32050807568877,121.2435565298214 25.980762113533157,126.2435565298214 25.980762113533157,136.2435565298214 17.32050807568877,141.2435565298214 8.660254037844386,136.2435565298214 8.660254037844386,126.2435565298214" fill="black"/>
<polyline points="0,143.56406460551017 8.660254037844386,138.56406460551017 17.32050807568877,143.56406460551017 17.32050807568877,153.56406460551017 8.660254037844386,158.56406460551017 0,153.56406460551017 0,143.56406460551017" fill="black"/>
<polyline points="8.660254037844386,160.88457268119893 17.32050807568877,155.88457268119893 25.980762113533157,160.88457268119893 25.980762113533157,170.88457268119893 17.32050807568877,175.88457268119893 8.660254037844386,170.88457268119893 8.660254037844386,160.88457268119893" fill="black"/>
<polyline points="17.32050807568877,5 25.980762113533157,0 34.64101615137754,5 34.64101615137754,15 25.980762113533157,20 17.32050807568877,15 17.32050807568877,5" fill="black"/>
<polyline points="25.980762113533157,22.32050807568877 34.64101615137754,17.32050807568877 43.301270189221924,22.32050807568877 43.301270189221924,32.32050807568877 34.64101615137754,37.32050807568877 25.980762113533157,32.32050807568877 25.980762113533157,22.32050807568877" fill="black"/>
<polyline points="17.32050807568877,39.64101615137754 25.980762113533157,34.64101615137754 34.64101615137754,39.64101615137754 34.64101615137754,49.64101615137754 25.980762113533157,54.64101615137754 17.32050807568877,49.64101615137754 17.32050807568877,39.64101615137754" fill="black"/>
<polyline points="25.980762113533157,56.96152422706631 34.64101615137754,51.96152422706631 43.301270189221924,56.96152422706631 43.301270189221924,66.96152422706632 34.64101615137754,71.96152422706632 25.980762113533157,66.96152422706632 25.980762113533157,56.96152422706631" fill="red"/>
<polyline points="17.32050807568877,74.28203230275508 25.980762113533157,69.28203230275508 34.64101615137754,74.28203230275508 34.64101615137754,84.28203230275508 25.980762113533157,89.28203230275508 17.32050807568877,84.28203230275508 17.32050807568877,74.28203230275508" fill="black"/>
<polyline points="25.980762113533157,91.60254037844385 34.64101615137754,86.60254037844385 43.301270189221924,91.60254037844385 43.301270189221924,101.60254037844385 34.64101615137754,106.60254037844385 25.980762113533157,101.60254037844385 25.980762113533157,91.60254037844385" fill="black"/>
<polyline points="17.32050807568877,108.92304845413263 25.980762113533157,103.92304845413263 34.64101615137754,108.92304845413263 34.64101615137754,118.92304845413263 25.980762113533157,123.92304845413263 17.32050807568877,118.92304845413263 17.32050807568877,108.92304845413263" fill="black"/>
<polyline points="25.980762113533157,126.2435565298214 34.64101615137754,121.2435565298214 43.301270189221924,126.2435565298214 43.301270189221924,136.2435565298214 34.64101615137754,141.2435565298214 25.980762113533157,136.2435565298214 25.980762113533157,126.2435565298214" fill="black"/>
<polyline points="17.32050807568877,143.56406460551017 25.980762113533157,138.56406460551017 34.64101615137754,143.56406460551017 34.64101615137754,153.56406460551017 25.980762113533157,158.56406460551017 17.32050807568877,153.56406460551017 17.32050807568877,143.56406460551017" fill="black"/>
<polyline points="25.980762113533157,160.88457268119893 34.64101615137754,155.88457268119893 43.301270189221924,160.88457268119893 43.301270189221924,170.88457268119893 34.64101615137754,175.88457268119893 25.980762113533157,170.88457268119893 25.980762113533157,160.88457268119893" fill="black"/>
<polyline points="34.64101615137754,5 43.301270189221924,0 51.96152422706631,5 51.96152422706631,15 43.301270189221924,20 34.64101615137754,15 34.64101615137754,5" fill="black"/>
<polyline points="43.301270189221924,22.32050807568877 51.961524227066306,17.32050807568877 60.621778264910695,22.32050807568877 60.621778264910695,32.32050807568877 51.961524227066306,37.32050807568877 43.301270189221924,32.32050807568877 43.301270189221924,22.32050807568877" fill="black"/>
<polyline points="34.64101615137754,39.64101615137754 43.301270189221924,34.64101615137754 51.96152422706631,39.64101615137754 51.96152422706631,49.64101615137754 43.301270189221924,54.64101615137754 34.64101615137754,49.64101615137754 34.64101615137754,39.64101615137754" fill="black"/>
<polyline points="43.301270189221924,56.96152422706631 51.961524227066306,51.96152422706631 60.621778264910695,56.96152422706631 60.621778264910695,66.96152422706632 51.961524227066306,71.96152422706632 43.301270189221924,66.96152422706632 43.301270189221924,56.96152422706631" fill="red"/>
<polyline points="34.64101615137754,74.28203230275508 43.301270189221924,69.28203230275508 51.96152422706631,74.28203230275508 51.96152422706631,84.28203230275508 43.301270189221924,89.28203230275508 34.64101615137754,84.28203230275508 34.64101615137754,74.28203230275508" fill="black"/>
<polyline points="43.301270189221924,91.60254037844385 51.961524227066306,86.60254037844385 60.621778264910695,91.60254037844385 60.621778264910695,101.60254037844385 51.961524227066306,106.60254037844385 43.301270189221924,101.60254037844385 43.301270189221924,91.60254037844385" fill="black"/>
<polyline points="34.64101615137754,108.92304845413263 43.301270189221924,103.92304845413263 51.96152422706631,108.92304845413263 51.96152422706631,118.92304845413263 43.301270189221924,123.92304845413263 34.64101615137754,118.92304845413263 34.64101615137754,108.92304845413263" fill="black"/>
<polyline points="43.301270189221924,126.2435565298214 51.961524227066306,121.2435565298214 60.621778264910695,126.2435565298214 60.621778264910695,136.2435565298214 51.961524227066306,141.2435565298214 43.301270189221924,136.2435565298214 43.301270189221924,126.2435565298214" fill="black"/>
<polyline points="34.64101615137754,143.56406460551017 43.301270189221924,138.56406460551017 51.96152422706631,143.56406460551017 51.96152422706631,153.56406460551017 43.301270189221924,158.56406460551017 34.64101615137754,153.56406460551017 34.64101615137754,143.56406460551017" fill="black"/>
<polyline points="43.301270189221924,160.88457268119893 51.961524227066306,155.88457268119893 60.621778264910695,160.88457268119893 60.621778264910695,170.88457268119893 51.961524227066306,175.88457268119893 43.301270189221924,170.88457268119893 43.301270189221924,160.88457268119893" fill="black"/>
<polyline points="51.96152422706631,5 60.6217782649107,0 69.28203230275508,5 69.28203230275508,15 60.6217782649107,20 51.96152422706631,15 51.96152422706631,5" fill="red"/>
<polyline points="60.6217782649107,22.32050807568877 69.28203230275508,17.32050807568877 77.94228634059948,22.32050807568877 77.94228634059948,32.32050807568877 69.28203230275508,37.32050807568877 60.6217782649107,32.32050807568877 60.6217782649107,22.32050807568877" fill="red"/>
<polyline points="51.96152422706631,39.64101615137754 60.6217782649107,34.64101615137754 69.28203230275508,39.64101615137754 69.28203230275508,49.64101615137754 60.6217782649107,54.64101615137754 51.96152422706631,49.64101615137754 51.96152422706631,39.64101615137754" fill="black"/>
<polyline points="60.6217782649107,56.96152422706631 69.28203230275508,51.96152422706631 77.94228634059948,56.96152422706631 77.94228634059948,66.96152422706632 69.28203230275508,71.96152422706632 60.6217782649107,66.96152422706632 60.6217782649107,56.96152422706631" fill="black"/>
<polyline points="51.96152422706631,74.28203230275508 60.6217782649107,69.28203230275508 69.28203230275508,74.28203230275508 69.28203230275508,84.28203230275508 60.6217782649107,89.28203230275508 51.96152422706631,84.28203230275508 51.96152422706631,74.28203230275508" fill="red"/>
<polyline points="60.6217782649107,91.60254037844385 69.28203230275508,86.60254037844385 77.94228634059948,91.60254037844385 77.94228634059948,101.60254037844385 69.28203230275508,106.60254037844385 60.6217782649107,101.60254037844385 60.6217782649107,91.60254037844385" fill="black"/>
<polyline points="51.96152422706631,108.92304845413263 60.6217782649107,103.92304845413263 69.28203230275508,108.92304845413263 69.28203230275508,118.92304845413263 60.6217782649107,123.92304845413263 51.96152422706631,118.92304845413263 51.96152422706631,108.92304845413263" fill="black"/>
<polyline points="60.6217782649107,126.2435565298214 69.28203230275508,121.2435565298214 77.94228634059948,126.2435565298214 77.94228634059948,136.2435565298214 69.28203230275508,141.2435565298214 60.6217782649107,136.2435565298214 60.6217782649107,126.2435565298214" fill="black"/>
<polyline points="51.96152422706631,143.56406460551017 60.6217782649107,138.56406460551017 69.28203230275508,143.56406460551017 69.28203230275508,153.56406460551017 60.6217782649107,158.56406460551017 51.96152422706631,153.56406460551017 51.96152422706631,143.56406460551017" fill="black"/>
<polyline points="60.6217782649107,160.88457268119893 69.28203230275508,155.88457268119893 77.94228634059948,160.88457268119893 77.94228634059948,170.88457268119893 69.28203230275508,175.88457268119893 60.6217782649107,170.88457268119893 60.6217782649107,160.88457268119893" fill="black"/>
<polyline points="69.28203230275508,5 77.94228634059947,0 86.60254037844385,5 86.60254037844385,15 77.94228634059947,20 69.28203230275508,15 69.28203230275508,5" fill="black"/>
<polyline points="77.94228634059947,22.32050807568877 86.60254037844385,17.32050807568877 95.26279441628824,22.32050807568877 95.26279441628824,32.32050807568877 86.60254037844385,37.32050807568877 77.94228634059947,32.32050807568877 77.94228634059947,22.32050807568877" fill="black"/>
<polyline points="69.28203230275508,39.64101615137754 77.94228634059947,34.64101615137754 86.60254037844385,39.64101615137754 86.60254037844385,49.64101615137754 77.94228634059947,54.64101615137754 69.28203230275508,49.64101615137754 69.28203230275508,39.64101615137754" fill="black"/>
<polyline points="77.94228634059947,56.96152422706631 86.60254037844385,51.96152422706631 95.26279441628824,56.96152422706631 95.26279441628824,66.96152422706632 86.60254037844385,71.96152422706632 77.94228634059947,66.96152422706632 77.94228634059947,56.96152422706631" fill="black"/>
<polyline points="69.28203230275508,74.28203230275508 77.94228634059947,69.28203230275508 86.60254037844385,74.28203230275508 86.60254037844385,84.28203230275508 77.94228634059947,89.28203230275508 69.28203230275508,84.28203230275508 69.28203230275508,74.28203230275508" fill="black"/>
<polyline points="77.94228634059947,91.60254037844385 86.60254037844385,86.60254037844385 95.26279441628824,91.60254037844385 95.26279441628824,101.60254037844385 86.60254037844385,106.60254037844385 77.94228634059947,101.60254037844385 77.94228634059947,91.60254037844385" fill="black"/>
<polyline points="69.28203230275508,108.92304845413263 77.94228634059947,103.92304845413263 86.60254037844385,108.92304845413263 86.60254037844385,118.92304845413263 77.94228634059947,123.92304845413263 69.28203230275508,118.92304845413263 69.28203230275508,108.92304845413263" fill="red"/>
<polyline points="77.94228634059947,126.2435565298214 86.60254037844385,121.2435565298214 95.26279441628824,126.2435565298214 95.26279441628824,136.2435565298214 86.60254037844385,141.2435565298214 77.94228634059947,136.2435565298214 77.94228634059947,126.2435565298214" fill="red"/>
<polyline points="69.28203230275508,143.56406460551017 77.94228634059947,138.56406460551017 86.60254037844385,143.56406460551017 86.60254037844385,153.56406460551017 77.94228634059947,158.56406460551017 69.28203230275508,153.56406460551017 69.28203230275508,143.56406460551017" fill="black"/>
<polyline points="77.94228634059947,160.88457268119893 86.60254037844385,155.88457268119893 95.26279441628824,160.88457268119893 95.26279441628824,170.88457268119893 86.60254037844385,175.88457268119893 77.94228634059947,170.88457268119893 77.94228634059947,160.88457268119893" fill="black"/>
<polyline points="86.60254037844385,5 95.26279441628823,0 103.92304845413261,5 103.92304845413261,15 95.26279441628823,20 86.60254037844385,15 86.60254037844385,5" fill="black"/>
<polyline points="95.26279441628824,22.32050807568877 103.92304845413263,17.32050807568877 112.58330249197701,22.32050807568877 112.58330249197701,32.32050807568877 103.92304845413263,37.32050807568877 95.26279441628824,32.32050807568877 95.26279441628824,22.32050807568877" fill="black"/>
<polyline points="86.60254037844385,39.64101615137754 95.26279441628823,34.64101615137754 103.92304845413261,39.64101615137754 103.92304845413261,49.64101615137754 95.26279441628823,54.64101615137754 86.60254037844385,49.64101615137754 86.60254037844385,39.64101615137754" fill="red"/>
<polyline points="95.26279441628824,56.96152422706631 103.92304845413263,51.96152422706631 112.58330249197701,56.96152422706631 112.58330249197701,66.96152422706632 103.92304845413263,71.96152422706632 95.26279441628824,66.96152422706632 95.26279441628824,56.96152422706631" fill="red"/>
<polyline points="86.60254037844385,74.28203230275508 95.26279441628823,69.28203230275508 103.92304845413261,74.28203230275508 103.92304845413261,84.28203230275508 95.26279441628823,89.28203230275508 86.60254037844385,84.28203230275508 86.60254037844385,74.28203230275508" fill="black"/>
<polyline points="95.26279441628824,91.60254037844385 103.92304845413263,86.60254037844385 112.58330249197701,91.60254037844385 112.58330249197701,101.60254037844385 103.92304845413263,106.60254037844385 95.26279441628824,101.60254037844385 95.26279441628824,91.60254037844385" fill="black"/>
<polyline points="86.60254037844385,108.92304845413263 95.26279441628823,103.92304845413263 103.92304845413261,108.92304845413263 103.92304845413261,118.92304845413263 95.26279441628823,123.92304845413263 86.60254037844385,118.92304845413263 86.60254037844385,108.92304845413263" fill="black"/>
<polyline points="95.26279441628824,126.2435565298214 103.92304845413263,121.2435565298214 112.58330249197701,126.2435565298214 112.58330249197701,136.2435565298214 103.92304845413263,141.2435565298214 95.26279441628824,136.2435565298214 95.26279441628824,126.2435565298214" fill="red"/>
<polyline points="86.60254037844385,143.56406460551017 95.26279441628823,138.56406460551017 103.92304845413261,143.56406460551017 103.92304845413261,153.56406460551017 95.26279441628823,158.56406460551017 86.60254037844385,153.56406460551017 86.60254037844385,143.56406460551017" fill="red"/>
<polyline points="95.26279441628824,160.88457268119893 103.92304845413263,155.88457268119893 112.58330249197701,160.88457268119893 112.58330249197701,170.88457268119893 103.92304845413263,175.88457268119893 95.26279441628824,170.88457268119893 95.26279441628824,160.88457268119893" fill="black"/>
<polyline points="103.92304845413263,5 112.58330249197701,0 121.2435565298214,5 121.2435565298214,15 112.58330249197701,20 103.92304845413263,15 103.92304845413263,5" fill="black"/>
<polyline points="112.58330249197701,22.32050807568877 121.24355652982139,17.32050807568877 129.90381056766577,22.32050807568877 129.90381056766577,32.32050807568877 121.24355652982139,37.32050807568877 112.58330249197701,32.32050807568877 112.58330249197701,22.32050807568877" fill="black"/>
<polyline points="103.92304845413263,39.64101615137754 112.58330249197701,34.64101615137754 121.2435565298214,39.64101615137754 121.2435565298214,49.64101615137754 112.58330249197701,54.64101615137754 103.92304845413263,49.64101615137754 103.92304845413263,39.64101615137754" fill="black"/>
<polyline points="112.58330249197701,56.96152422706631 121.24355652982139,51.96152422706631 129.90381056766577,56.96152422706631 129.90381056766577,66.96152422706632 121.24355652982139,71.96152422706632 112.58330249197701,66.96152422706632 112.58330249197701,56.96152422706631" fill="black"/>
<polyline points="103.92304845413263,74.28203230275508 112.58330249197701,69.28203230275508 121.2435565298214,74.28203230275508 121.2435565298214,84.28203230275508 112.58330249197701,89.28203230275508 103.92304845413263,84.28203230275508 103.92304845413263,74.28203230275508" fill="black"/>
<polyline points="112.58330249197701,91.60254037844385 121.24355652982139,86.60254037844385 129.90381056766577,91.60254037844385 129.90381056766577,101.60254037844385 121.24355652982139,106.60254037844385 112.58330249197701,101.60254037844385 112.58330249197701,91.60254037844385" fill="red"/>
<polyline points="103.92304845413263,108.92304845413263 112.58330249197701,103.92304845413263 121.2435565298214,108.92304845413263 121.2435565298214,118.92304845413263 112.58330249197701,123.92304845413263 103.92304845413263,118.92304845413263 103.92304845413263,108.92304845413263" fill="black"/>
<polyline points="112.58330249197701,126.2435565298214 121.24355652982139,121.2435565298214 129.90381056766577,126.2435565298214 129.90381056766577,136.2435565298214 121.24355652982139,141.2435565298214 112.58330249197701,136.2435565298214 112.58330249197701,126.2435565298214" fill="black"/>
<polyline points="103.92304845413263,143.56406460551017 112.58330249197701,138.56406460551017 121.2435565298214,143.56406460551017 121.2435565298214,153.56406460551017 112.58330249197701,158.56406460551017 103.92304845413263,153.56406460551017 103.92304845413263,143.56406460551017" fill="black"/>
<polyline points="112.58330249197701,160.88457268119893 121.24355652982139,155.88457268119893 129.90381056766577,160.88457268119893 129.90381056766577,170.88457268119893 121.24355652982139,175.88457268119893 112.58330249197701,170.88457268119893 112.58330249197701,160.88457268119893" fill="black"/>
<polyline points="121.2435565298214,5 129.9038105676658,0 138.56406460551017,5 138.56406460551017,15 129.9038105676658,20 121.2435565298214,15 121.2435565298214,5" fill="black"/>
<polyline points="129.90381056766577,22.32050807568877 138.56406460551017,17.32050807568877 147.22431864335454,22.32050807568877 147.22431864335454,32.32050807568877 138.56406460551017,37.32050807568877 129.90381056766577,32.32050807568877 129.90381056766577,22.32050807568877" fill="black"/>
<polyline points="121.2435565298214,39.64101615137754 129.9038105676658,34.64101615137754 138.56406460551017,39.64101615137754 138.56406460551017,49.64101615137754 129.9038105676658,54.64101615137754 121.2435565298214,49.64101615137754 121.2435565298214,39.64101615137754" fill="black"/>
<polyline points="129.90381056766577,56.96152422706631 138.56406460551017,51.96152422706631 147.22431864335454,56.96152422706631 147.22431864335454,66.96152422706632 138.56406460551017,71.96152422706632 129.90381056766577,66.96152422706632 129.90381056766577,56.96152422706631" fill="black"/>
<polyline points="121.2435565298214,74.28203230275508 129.9038105676658,69.28203230275508 138.56406460551017,74.28203230275508 138.56406460551017,84.28203230275508 129.9038105676658,89.28203230275508 121.2435565298214,84.28203230275508 121.2435565298214,74.28203230275508" fill="red"/>
<polyline points="129.90381056766577,91.60254037844385 138.56406460551017,86.60254037844385 147.22431864335454,91.60254037844385 147.22431864335454,101.60254037844385 138.56406460551017,106.60254037844385 129.90381056766577,101.60254037844385 129.90381056766577,91.60254037844385" fill="black"/>
<polyline points="121.2435565298214,108.92304845413263 129.9038105676658,103.92304845413263 138.56406460551017,108.92304845413263 138.56406460551017,118.92304845413263 129.9038105676658,123.92304845413263 121.2435565298214,118.92304845413263 121.2435565298214,108.92304845413263" fill="black"/>
<polyline points="129.90381056766577,126.2435565298214 138.56406460551017,121.2435565298214 147.22431864335454,126.2435565298214 147.22431864335454,136.2435565298214 138.56406460551017,141.2435565298214 129.90381056766577,136.2435565298214 129.90381056766577,126.2435565298214" fill="black"/>
<polyline points="121.2435565298214,143.56406460551017 129.9038105676658,138.56406460551017 138.56406460551017,143.56406460551017 138.56406460551017,153.56406460551017 129.9038105676658,158.56406460551017 121.2435565298214,153.56406460551017 121.2435565298214,143.56406460551017" fill="black"/>
<polyline points="129.90381056766577,160.88457268119893 138.56406460551017,155.88457268119893 147.22431864335454,160.88457268119893 147.22431864335454,170.88457268119893 138.56406460551017,175.88457268119893 129.90381056766577,170.88457268119893 129.90381056766577,160.88457268119893" fill="black"/>
<polyline points="138.56406460551017,5 147.22431864335456,0 155.88457268119893,5 155.88457268119893,15 147.22431864335456,20 138.56406460551017,15 138.56406460551017,5" fill="black"/>
<polyline points="147.22431864335456,22.32050807568877 155.88457268119896,17.32050807568877 164.54482671904333,22.32050807568877 164.54482671904333,32.32050807568877 155.88457268119896,37.32050807568877 147.22431864335456,32.32050807568877 147.22431864335456,22.32050807568877" fill="black"/>
<polyline points="138.56406460551017,39.64101615137754 147.22431864335456,34.64101615137754 155.88457268119893,39.64101615137754 155.88457268119893,49.64101615137754 147.22431864335456,54.64101615137754 138.56406460551017,49.64101615137754 138.56406460551017,39.64101615137754" fill="black"/>
<polyline points="147.22431864335456,56.96152422706631 155.88457268119896,51.96152422706631 164.54482671904333,56.96152422706631 164.54482671904333,66.96152422706632 155.88457268119896,71.96152422706632 147.22431864335456,66.96152422706632 147.22431864335456,56.96152422706631" fill="black"/>
<polyline points="138.56406460551017,74.28203230275508 147.22431864335456,69.28203230275508 155.88457268119893,74.28203230275508 155.88457268119893,84.28203230275508 147.22431864335456,89.28203230275508 138.56406460551017,84.28203230275508 138.56406460551017,74.28203230275508" fill="red"/>
<polyline points="147.22431864335456,91.60254037844385 155.88457268119896,86.60254037844385 164.54482671904333,91.60254037844385 164.54482671904333,101.60254037844385 155.88457268119896,106.60254037844385 147.22431864335456,101.60254037844385 147.22431864335456,91.60254037844385" fill="black"/>
<polyline points="138.56406460551017,108.92304845413263 147.22431864335456,103.92304845413263 155.88457268119893,108.92304845413263 155.88457268119893,118.92304845413263 147.22431864335456,123.92304845413263 138.56406460551017,118.92304845413263 138.56406460551017,108.92304845413263" fill="black"/>
<polyline points="147.22431864335456,126.2435565298214 155.88457268119896,121.2435565298214 164.54482671904333,126.2435565298214 164.54482671904333,136.2435565298214 155.88457268119896,141.2435565298214 147.22431864335456,136.2435565298214 147.22431864335456,126.2435565298214" fill="black"/>
<polyline points="138.56406460551017,143.56406460551017 147.22431864335456,138.56406460551017 155.88457268119893,143.56406460551017 155.88457268119893,153.56406460551017 147.22431864335456,158.56406460551017 138.56406460551017,153.56406460551017 138.56406460551017,143.56406460551017" fill="black"/>
<polyline points="147.22431864335456,160.88457268119893 155.88457268119896,155.88457268119893 164.54482671904333,160.88457268119893 164.54482671904333,170.88457268119893 155.88457268119896,175.88457268119893 147.22431864335456,170.88457268119893 147.22431864335456,160.88457268119893" fill="black"/>
<polyline points="155.88457268119893,5 164.54482671904333,0 173.2050807568877,5 173.2050807568877,15 164.54482671904333,20 155.88457268119893,15 155.88457268119893,5" fill="black"/>
<polyline points="164.54482671904333,22.32050807568877 173.20508075688772,17.32050807568877 181.8653347947321,22.32050807568877 181.8653347947321,32.32050807568877 173.20508075688772,37.32050807568877 164.54482671904333,32.32050807568877 164.54482671904333,22.32050807568877" fill="black"/>
<polyline points="155.88457268119893,39.64101615137754 164.54482671904333,34.64101615137754 173.2050807568877,39.64101615137754 173.2050807568877,49.64101615137754 164.54482671904333,54.64101615137754 155.88457268119893,49.64101615137754 155.88457268119893,39.64101615137754" fill="black"/>
<polyline points="164.54482671904333,56.96152422706631 173.20508075688772,51.96152422706631 181.8653347947321,56.96152422706631 181.8653347947321,66.96152422706632 173.20508075688772,71.96152422706632 164.54482671904333,66.96152422706632 164.54482671904333,56.96152422706631" fill="black"/>
<polyline points="155.88457268119893,74.28203230275508 164.54482671904333,69.28203230275508 173.2050807568877,74.28203230275508 173.2050807568877,84.28203230275508 164.54482671904333,89.28203230275508 155.88457268119893,84.28203230275508 155.88457268119893,74.28203230275508" fill="black"/>
<polyline points="164.54482671904333,91.60254037844385 173.20508075688772,86.60254037844385 181.8653347947321,91.60254037844385 181.8653347947321,101.60254037844385 173.20508075688772,106.60254037844385 164.54482671904333,101.60254037844385 164.54482671904333,91.60254037844385" fill="black"/>
<polyline points="155.88457268119893,108.92304845413263 164.54482671904333,103.92304845413263 173.2050807568877,108.92304845413263 173.2050807568877,118.92304845413263 164.54482671904333,123.92304845413263 155.88457268119893,118.92304845413263 155.88457268119893,108.92304845413263" fill="black"/>
<polyline points="164.54482671904333,126.2435565298214 173.20508075688772,121.2435565298214 181.8653347947321,126.2435565298214 181.8653347947321,136.2435565298214 173.20508075688772,141.2435565298214 164.54482671904333,136.2435565298214 164.54482671904333,126.2435565298214" fill="black"/>
<polyline points="155.88457268119893,143.56406460551017 164.54482671904333,138.56406460551017 173.2050807568877,143.56406460551017 173.2050807568877,153.56406460551017 164.54482671904333,158.56406460551017 155.88457268119893,153.56406460551017 155.88457268119893,143.56406460551017" fill="black"/>
<polyline points="164.54482671904333,160.88457268119893 173.20508075688772,155.88457268119893 181.8653347947321,160.88457268119893 181.8653347947321,170.88457268119893 173.20508075688772,175.88457268119893 164.54482671904333,170.88457268119893 164.54482671904333,160.88457268119893" fill="black"/>
</svg>